<?xml version="1.0" encoding="UTF-8"?>
<svg version="1.1" viewBox="0 0 1084 1216" width="271" height="304" xmlns="http://www.w3.org/2000/svg">
<path transform="translate(493,48)" d="m0 0h78l17 3 16 2 6 2 16 2 13 3 6 2 11 2 11 3 9 2 5 2 13 3 26 8 21 7 15 6 24 9 29 12 20 10 17 9 6 3 9 6 14 10 13 10 6 4 7 7 6 9 5 7 5 12 3 10v8l-4 3h-19l-3-3h-29l3 3 10 2 20 2 16 5 7 2 13 2 13 6 8 3 8 5 9 3 5 4 10 5 8 6 12 10 5 5 12 13 7 10 9 14 2 6 5 10 2 9 3 7 2 10 2 9v49l-1 10-4 15-5 17-4 9-3 10-2 2h-4l-1 9-6 12-9 13-4 6-3 1-2 5-7 6-11 11-20 9-2-1v-25l3-12v-48l-3-7-1-9-5-4-7-8-4 1-4 8-10 4-10 2h-22l-4 1-17-5-15-3-21-7-15-6-24-10-10-6-11-3-24-9-13-4-20-3-31-5h-72l-26-1-8-5-8-6-3-5 1-7 6-5 11-4 15-1-4-4 2-4h2v-5l3-2 15-2 3-2 16-2 5-2 17-1 6-2 1-1 14-1 15-3 21-2 21-4 14-4 5-3 14-7 10-8 7-11 4-8 1-11 7-15v-2l-11-2-4-5-3-8-9-17-1-5-8 7-6 8-12 9-9 4-7 1-2 2-7 1h-23l-7-2-15-4-8-4-7-2-10-4-16-7-17-6-8-4-13-6-14-5-20-8-22-7-27-5-18-3h-53l-3 2-21 2-15 3-11 2-5 2-10 2-21 8-18 8 1 1h15l14-2 5-1h90l14 3 15 2 7 3v4l-4 3-22 4-12 2v1l14 3 17 5 7 3 5 12 2 8 12 22 11 12 8 7 8 5 3 3v7l-6 3-15 4-15 1 1 2h32l21-2 8-1 23-1 6-2 4 7-2 5-14 14-8 4-8 7-10 7-9 7-8 10-4 6-2 6 5 5 14 7 1 1 11 1 7 3 100 1 5 5 1 7-8 7-4 2v2h7l16-5 16-6h10l5 5-1 6-11 7-8 7v2l31 1 5 6v5l-2 4 4 3 4-6 8-9 5-1 5 10-1 9-4 14 8-1 5-5 4-10 3-7 2-8 5-1 5 2 2 7 1 6-2 21-6 12-9 11-4 7-4 5-8 14-8 15-8 21-2 21-1 8 2 3h2l4-17 5-14 6-21 8-20 5-9 5-1 4 2 1 2v12l-3 4v72l3 14 2 11 7 19 6 15 10 21 8 16 6 10 7 11 15 24 7 11 20 25 4 7v4l-6 2h-10l-25-10-15-7-9-5-10-6-3-3-6-3-13-12-11-11-8-10-4-6-7-9v20l3 9 1 20 2 5 3 24 2 10 1 9 2 4 2 20 3 9 1 11 2 3 2 12 2 3 2 14 3 9 2 9 2 7 2 9 3 13 4 9 3 7v12l-3 3-7-1-5-4v-2l-4-2-5-5-1-3h-2l-4-4-5-4-5-5-8-6-11-11-5-6-3-3-6-8-7-7-10-13-7-9-14-20-12-19-8-15-10-21-6-12-8-20-6-17-3-8-7-22-4-16-2-12-2-6-1-21-2-2-2 3h-2v18l1 8-1 1 1 12 2 15 2 13 2 8 3 14 7 30 10 35 1 8 3 7 2 9 2 5 2 12 2 7 2 10 2 6 2 12 2 8 2 17 2 7 2 16 5 26 1 7 1 17 2 5 1 9 1 21 2 5 2 27 5 42 3 23 2 3 2 25h6l-1 14-2 9-1 1h-8l-6-4-10-7-36-36-8-11-10-11-14-21-6-10-6-9-11-18-9-19-6-16-6-12-10-26-10-30-5-17-7-19-8-26-6-21-6-26-2-10-5-28-4-36-1-56-1-1-3 10-2 5-5 23-3 16-2 16-2 6-1 17-2 8-1 2-1 18-2 7-1 1-1 17-1 7-2 2-1 15-2 7-1 1-2 19h-2l-1 17-2 7-1 1-2 18-2 3-2 17-2 3-2 10-2 2-1 21-3 3-1 19-3 9-1 10-1 1h-5l-5-6-9-21-5-14-7-16-7-20-4-12-3-11-3-10-4-13-4-15-5-20-2-6-2-17-2-5-2-18-2-5-2-33-1-9v-34l4-38 3-21-5 3-5 6-7 14-11 20-9 19-4 6h-2l-2 10-6 8-3 9-7 16-5 11-4 13-5 14-2 11-2 4-2 10-2 3-2 16-2 4-2 16-2 4-1 14-1 4h-2l-1 14-2 6-3 11-3 2h-5l-3-3-4-9-2-7-6-11-6-17-7-19-7-22-2-12-2-5-4-19-4-25-2-32-1-13v-14l2-25 1-29 3-7 1-13 3-10 2-13 4-20 11-32 7-14 2-5 1-4-5-3-1 5-7 8-4 7-7 9-13 20-24 40-3 6-4 5-4 8-5 8-4 6-5 9-8 13-13 22-7 11-9 16-13 23-9 17-9 21-7 18-2 6-5 1-6-9v-120l3-11 1-18 3-8 1-11 3-8 2-11 5-13 3-10 7-19 13-26 5-9 8-12 3-6 12-13 5-5 4-6 9-8 5-5 10-9 8-7 8-6 14-11 7-5v-5l-11 6-16 12-7 5-5 3-11 9-9 6-7 6-5 3-10 9-11 11-7 3h-3l-3-4 3-9 6-9 3-5h2l2-4 8-11 9-10 9-12 7-7 4-5 3-5 10-11 7-8 46-46 9-7-4-1-8 4-10 7-10 9-5 2-5 5-10 9-13 10-10 10h-2l-2 4-7 7-7 9-12 13-9 9-1 2h-2l-2 5-6 8-6 7h-2l-2 7-9 10-3 6-13 22-8 15-5 7-4 7-4 10-7 13-4 10-6 13-3 5-4 5-2 6h-5l-5-6-1-2v-63l3-11 1-16 3-8 2-13 2-4 2-8 2-4 2-8 12-25 11-18 6-11 12-20 8-12 5-8 10-12 8-11 9-12 5-6-1-3-5 3-10 9-4 5h-2l-2 5h-2v2l-3 2-3 6-17 17-5 7-6 4-2 2-2 6-9 9-4 8-5 6-2 5-7 8-6 9-4-1-2-4v-12l3-5 2-9 5-10 3-10 4-9 5-13 9-17 7-14 6-8 10-16 9-12 7-8 4-5h2l2-4 7-7 7-8 17-16 11-10 11-7 11-8 7-6 23-12 10-6 10-5 12-5 10-5 10-3 7-2v-3h-7l-23 6-23 8-21 8-29 14-16 8-23 13-12 6-4-2-1-4 6-9 5-5 16-14 10-9 15-11 8-7 22-14 5-1-3-5-4 1-14 8-20 12-3 1h-9l-3-2 2-5 5-6h2l2-4 8-8 8-7 22-18 8-6 13-9 10-7 13-8 22-12 21-9 31-14 22-9 22-6-2-3-19 2-25 5-13 3-18 5-23 7-10 3-32 10-16 6-24 10-17 6h-6l-2-4 4-6 24-18 16-10 11-6 16-8 24-11 24-10 18-6 11-3 3-2 9-2 9-4 17-6 9-2 15-6 16-4 12-4 10-2 4-2 16-3 19-5 14-2 6-2 18-2 6-2 22-1v-2z" fill="#FDFCFC"/>
<path transform="translate(493,48)" d="m0 0h78l17 3 16 2 6 2 16 2 13 3 6 2 11 2 11 3 9 2 5 2 13 3 26 8 21 7 15 6 24 9 29 12 20 10 17 9 6 3 9 6 14 10 13 10 6 4 7 7 6 9 5 7 5 12 3 10v8l-4 3h-19l-3-3h-29l3 3 10 2 20 2 16 5 7 2 13 2 13 6 8 3 8 5 9 3 5 4 10 5 8 6 12 10 5 5 12 13 7 10 9 14 2 6 5 10 2 9 3 7 2 10 2 9v49l-1 10-4 15-5 17-4 9-3 10-2 2h-4l-1 9-6 12-9 13-4 6-3 1-2 5-7 6-11 11-20 9-2-1v-25l3-12v-48l-3-7-1-9-5-4-7-8-4 1-4 8-10 4-10 2h-22l-4 1-17-5-15-3-21-7-15-6-24-10-10-6-11-3-24-9-13-4-20-3-31-5h-72l-26-1-8-5-8-6-3-5 1-7 6-5 11-4 15-1-4-4 2-4h2v-5l3-2 15-2 3-2 16-2 5-2 17-1 6-2 1-1 14-1 15-3 21-2 21-4 14-4 5-3 14-7 10-8 7-11 4-8 1-11 7-15v-2l-11-2-4-5-3-8-9-17-1-5-8 7-6 8-12 9-9 4-7 1-2 2-7 1h-23l-7-2-15-4-8-4-7-2-10-4-16-7-17-6-8-4-13-6-14-5-20-8-22-7-27-5-18-3h-53l-3 2-21 2-15 3-11 2-5 2-10 2-21 8-18 8 1 1h15l14-2 5-1h90l14 3 15 2 7 3v4l-4 3-22 4-12 2v1l14 3 17 5 7 3 5 12 2 8 12 22 11 12 8 7 8 5 3 3v7l-6 3-15 4-15 1 1 2h32l21-2 8-1 23-1 6-2 1 4-19 3-32 3-37 1-18-1-24-4-7-3 1-2 38-2 28-3 11-2-2-4-13-9-10-9-7-10-9-17-8-22-9-3-43-11-20-6v-1l53-1 15-1 4-1-1-2-15-3-16-2-14-1h-68l-27 3-24 5-10 3h-4l2-4 13-10 15-8 21-8 29-8 32-6 15-2 18-1h14l26 2 24 4 21 5 27 9 34 14 48 20 23 8 15 4 14 2 13-1 15-4 10-5 8-6 1-2h2l2-4 7-10 2-4h2l12 23 10 18 4-2 9-10 13-10 12-7 13-5 12-3h17l14 3 13 3-2-16-5-13-6-9-9-11-13-11-10-7-15-10-16-9-29-15-28-12-37-14-35-12-35-10-32-8-36-7-27-4-23-2h-50l-22 2-39 6-43 9-27 7-37 11-40 13-43 15-34 14-24 11-18 10-19 12-18 13-4 3h-2l2-4 24-18 16-10 11-6 16-8 24-11 24-10 18-6 11-3 3-2 9-2 9-4 17-6 9-2 15-6 16-4 12-4 10-2 4-2 16-3 19-5 14-2 6-2 18-2 6-2 22-1v-2z" fill="#C2A81B"/>
<path transform="translate(493,48)" d="m0 0h78l17 3 16 2 6 2 16 2 13 3 6 2 11 2 11 3 9 2 5 2 13 3 26 8 21 7 15 6 24 9 29 12 20 10 17 9 6 3 9 6 14 10 13 10 6 4 7 7 6 9 5 7 5 12 3 10v8l-4 3h-19l-3-3h-29l3 3 10 2 20 2 16 5 7 2 13 2 13 6 8 3 8 5 9 3 5 4 10 5 8 6 12 10 5 5 12 13 7 10 9 14 2 6 5 10 2 9 3 7 2 10 2 9v49l-1 10-4 15-5 17-4 9-3 10-2 2h-4l-1 9-6 12-9 13-4 6-3 1-2 5-7 6-11 11-20 9-2-1v-25l3-12v-48l-3-7-1-9-5-4-7-8-4 1-4 8-10 4-10 2h-22l-4 1-17-5-15-3-21-7-15-6-24-10-10-6-11-3-24-9-13-4-20-3-31-5h-72l-26-1-8-5-8-6-3-5 1-7 6-5 11-4 15-1-1-3 28-2 35-3h24l21 2 29 5 43 11 35 11 43 14 22 8 29 12 16 8 16 9 9 9 2 5h2l4 10 2 9 1 6v40l-5 32-2 7 16-9 10-8 8-8 6-7 10-15 12-21 7-15 7-19 5-21 2-18v-30l-3-24-6-19-8-18-9-14-8-10-12-13-7-6-13-9v-2l-4-1-18-10-15-7-20-7-18-5-12-4-13-3h-22l-16 5-13 7-11 11-4 7-5 11-8 24-6 10-7 8-14 9-15 6-21 5-62 10-33 5-26 5-7 2v-5l3-2 15-2 3-2 16-2 5-2 17-1 6-2 1-1 14-1 15-3 21-2 21-4 14-4 5-3 14-7 10-8 7-11 4-8 1-11 7-15v-2l-11-2-4-5-3-8-9-17-1-5-8 7-6 8-12 9-9 4-7 1-2 2-7 1h-23l-7-2-15-4-8-4-7-2-10-4-16-7-17-6-8-4-13-6-14-5-20-8-22-7-27-5-18-3h-53l-3 2-21 2-15 3-11 2-5 2-10 2-21 8-18 8 1 1h15l14-2 5-1h90l14 3 15 2 7 3v4l-4 3-22 4-12 2v1l14 3 17 5 7 3 5 12 2 8 12 22 11 12 8 7 8 5 3 3v7l-6 3-15 4-15 1 1 2h32l21-2 8-1 23-1 6-2 1 4-19 3-32 3-37 1-18-1-24-4-7-3 1-2 38-2 28-3 11-2-2-4-13-9-10-9-7-10-9-17-8-22-9-3-43-11-20-6v-1l53-1 15-1 4-1-1-2-15-3-16-2-14-1h-68l-27 3-24 5-10 3h-4l2-4 13-10 15-8 21-8 29-8 32-6 15-2 18-1h14l26 2 24 4 21 5 27 9 34 14 48 20 23 8 15 4 14 2 13-1 15-4 10-5 8-6 1-2h2l2-4 7-10 2-4h2l12 23 10 18 4-2 9-10 13-10 12-7 13-5 12-3h17l14 3 13 3-2-16-5-13-6-9-9-11-13-11-10-7-15-10-16-9-29-15-28-12-37-14-35-12-35-10-32-8-36-7-27-4-23-2h-50l-22 2-39 6-43 9-27 7-37 11-40 13-43 15-34 14-24 11-18 10-19 12-18 13-4 3h-2l2-4 24-18 16-10 11-6 16-8 24-11 24-10 18-6 11-3 3-2 9-2 9-4 17-6 9-2 15-6 16-4 12-4 10-2 4-2 16-3 19-5 14-2 6-2 18-2 6-2 22-1v-2z" fill="#0E0707"/>
<path transform="translate(332,458)" d="m0 0h4v2l-20 8-26 12-24 12-23 14-16 11-19 14-16 13-14 12-3 3h-2l-1 3-8 7-9 10-10 13-11 17-12 22-12 28-9 28-6 26-5 33-2 24v66l1 33 1 8 2-2 8-23 9-20 8-16 14-26 8-13 10-17 14-23 13-21 14-24 17-29 12-19 14-21 10-14 13-18 14-18 9-11 12-14 9-10 11-12 14-13 17-13 10-7 15-8 9-3-2 4-13 10-13 11-10 9-8 7-4 2v2l-8 7-7 7-7 8-11 13-14 19-10 16-10 18-10 24-8 26-8 36-4 24-2 24-1 23v17l2 31 3 26 5 28 8 31 11 33 12 29 6 13v2h2l4-19 12-60 8-33 9-29 10-25 17-35 9-17 8-16 10-18 8-12 11-14 4-4h2l-1 8-3 19-3 26-2 29v20l2 29 3 26 6 35 9 38 9 31 15 44 12 31 7 17 3 4 7-43 11-53 4-22 18-102 6-42 5-32 5-24 6-20 7-20 8-16 1 4-5 31-1 11v47l3 29 5 32 7 31 9 33 9 30 12 36 10 29 12 30 9 20 8 16 8 15 13 21 10 14 12 16 13 15 16 17 9 9 8 7 13 10 7 4-5-33-6-35-5-42-8-74-4-30-6-36-7-36-7-32-11-44-9-32-5-19-6-28-3-22-1-13v-30l3-22 3-12 2-2 1 2 2 24 5 32 2 10 8 30 11 32 13 30 10 21 9 16 15 24 14 20 12 15 9 11 16 17 14 14 8 7 15 14 8 8 5 3v-7l-7-25-8-29-13-55-8-43-4-24-8-64-1-11v-13h2l10 21 10 15 11 13 12 12 13 10 16 10 16 8 28 11 12 3-3-7-9-11-14-19-12-19-13-21-12-21-15-30-11-29-6-26-2-13-1-12v-28l2-20 3-17 1-6 3 1 1 2v12l-3 4v72l3 14 2 11 7 19 6 15 10 21 8 16 6 10 7 11 15 24 7 11 20 25 4 7v4l-6 2h-10l-25-10-15-7-9-5-10-6-3-3-6-3-13-12-11-11-8-10-4-6-7-9v20l3 9 1 20 2 5 3 24 2 10 1 9 2 4 2 20 3 9 1 11 2 3 2 12 2 3 2 14 3 9 2 9 2 7 2 9 3 13 4 9 3 7v12l-3 3-7-1-5-4v-2l-4-2-5-5-1-3h-2l-4-4-5-4-5-5-8-6-11-11-5-6-3-3-6-8-7-7-10-13-7-9-14-20-12-19-8-15-10-21-6-12-8-20-6-17-3-8-7-22-4-16-2-12-2-6-1-21-2-2-2 3h-2v18l1 8-1 1 1 12 2 15 2 13 2 8 3 14 7 30 10 35 1 8 3 7 2 9 2 5 2 12 2 7 2 10 2 6 2 12 2 8 2 17 2 7 2 16 5 26 1 7 1 17 2 5 1 9 1 21 2 5 2 27 5 42 3 23 2 3 2 25h6l-1 14-2 9-1 1h-8l-6-4-10-7-36-36-8-11-10-11-14-21-6-10-6-9-11-18-9-19-6-16-6-12-10-26-10-30-5-17-7-19-8-26-6-21-6-26-2-10-5-28-4-36-1-56-1-1-3 10-2 5-5 23-3 16-2 16-2 6-1 17-2 8-1 2-1 18-2 7-1 1-1 17-1 7-2 2-1 15-2 7-1 1-2 19h-2l-1 17-2 7-1 1-2 18-2 3-2 17-2 3-2 10-2 2-1 21-3 3-1 19-3 9-1 10-1 1h-5l-5-6-9-21-5-14-7-16-7-20-4-12-3-11-3-10-4-13-4-15-5-20-2-6-2-17-2-5-2-18-2-5-2-33-1-9v-34l4-38 3-21-5 3-5 6-7 14-11 20-9 19-4 6h-2l-2 10-6 8-3 9-7 16-5 11-4 13-5 14-2 11-2 4-2 10-2 3-2 16-2 4-2 16-2 4-1 14-1 4h-2l-1 14-2 6-3 11-3 2h-5l-3-3-4-9-2-7-6-11-6-17-7-19-7-22-2-12-2-5-4-19-4-25-2-32-1-13v-14l2-25 1-29 3-7 1-13 3-10 2-13 4-20 11-32 7-14 2-5 1-4-5-3-1 5-7 8-4 7-7 9-13 20-24 40-3 6-4 5-4 8-5 8-4 6-5 9-8 13-13 22-7 11-9 16-13 23-9 17-9 21-7 18-2 6-5 1-6-9v-120l3-11 1-18 3-8 1-11 3-8 2-11 5-13 3-10 7-19 13-26 5-9 8-12 3-6 12-13 5-5 4-6 9-8 5-5 10-9 8-7 8-6 14-11 7-5v-5l-11 6-16 12-7 5-5 3-11 9-9 6-7 6-5 3-10 9-11 11-7 3h-3v-2l6-4 13-13 11-9 12-10 17-12 19-14 18-12 20-12 22-12 19-9 25-9 23-5z" fill="#0E0707"/>
<path transform="translate(632,367)" d="m0 0h79l24 3 38 8 31 9 44 15 27 10 21 7 21 8 26 11 3 3-1 7-3 2-11 3h-30l-30-7-20-7-28-11-27-12-28-10-22-6-24-4-20-2-83-1-15-2-12-6-6-6 2-5 6-4 13-2z" fill="#C2A61C"/>
<path transform="translate(800,531)" d="m0 0 3 1 1 2v12l-3 4v72l3 14 2 11 7 19 6 15 10 21 8 16 6 10 7 11 15 24 7 11 20 25 4 7v4l-6 2h-10l-25-10-15-7-9-5-10-6-3-3-6-3-13-12-11-11-8-10-4-6-7-9v20l3 9 1 20 2 5 3 24 2 10 1 9 2 4 2 20 3 9 1 11 2 3 2 12 2 3 2 14 3 9 2 9 2 7 2 9 3 13 4 9 3 7v12l-3 3-7-1-5-4v-2l-4-2-5-5-1-3h-2l-4-4-5-4-5-5-8-6-11-11-5-6-3-3-6-8-7-7-10-13-7-9-14-20-12-19-8-15-10-21-6-12-8-20-6-17-3-8-7-22-4-16-2-12-2-6-1-21-2-2-2 3h-2v18l1 8-1 1 1 12 2 15 2 13 2 8 3 14 7 30 10 35 1 8 3 7 2 9 2 5 2 12 2 7 2 10 2 6 2 12 2 8 2 17 2 7 2 16 5 26 1 7 1 17 2 5 1 9 1 21 2 5 2 27 5 42 3 23 2 3 2 25h6l-1 14-2 9-1 1h-8l-6-4-10-7-36-36-8-11-10-11-14-21-6-10-6-9-11-18-9-19-6-16-6-12-10-26-10-30-5-17-7-19-8-26-6-21-6-26-2-10-5-28-4-36-1-56-1-1-3 10-2 5-5 23-3 16-2 16-2 6-1 17-2 8-4 4 5-40 5-29 4-19 6-20 7-20 8-16 1 4-5 31-1 11v47l3 29 5 32 7 31 9 33 9 30 12 36 10 29 12 30 9 20 8 16 8 15 13 21 10 14 12 16 13 15 16 17 9 9 8 7 13 10 7 4-5-33-6-35-5-42-8-74-4-30-6-36-7-36-7-32-11-44-9-32-5-19-6-28-3-22-1-13v-30l3-22 3-12 2-2 1 2 2 24 5 32 2 10 8 30 11 32 13 30 10 21 9 16 15 24 14 20 12 15 9 11 16 17 14 14 8 7 15 14 8 8 5 3v-7l-7-25-8-29-13-55-8-43-4-24-8-64-1-11v-13h2l10 21 10 15 11 13 12 12 13 10 16 10 16 8 28 11 12 3-3-7-9-11-14-19-12-19-13-21-12-21-15-30-11-29-6-26-2-13-1-12v-28l2-20 3-17z" fill="#110908"/>
<path transform="translate(321,236)" d="m0 0h11v3l-13 5-31 9-33 11-26 11-27 13-22 13-20 14-14 11-15 13-14 13-7 8-13 15-13 18-10 15-12 21-9 19-13 32-8 21-2 11 5-5 12-19 12-16 9-11 12-14 15-16 11-12 10-11 8-7 12-11 11-9 10-9 11-9 15-13 14-10 16-8 14-6 9-1-4 3-11 7-12 8-14 11-17 14-14 12-15 14-10 10-7 8-10 12-11 15-26 39-8 13-15 26-10 19-8 21-7 28-4 28v64l1 3h2l8-15 7-16 22-44 8-14 13-21 8-12 14-19 14-17 13-15 16-17 23-23 11-9 11-10 13-10 14-10 15-10 21-13 18-10 19-10 2 1-9 10-18 13-13 9-11 9-14 12-7 7-8 7-15 15-7 8-9 9-7 8-10 11-9 11-11 13-8 10-20 26-8 13-2 3-2-4 3-7 6-9 3-5h2l2-4 8-11 9-10 9-12 7-7 4-5 3-5 10-11 7-8 46-46 9-7-4-1-8 4-10 7-10 9-5 2-5 5-10 9-13 10-10 10h-2l-2 4-7 7-7 9-12 13-9 9-1 2h-2l-2 5-6 8-6 7h-2l-2 7-9 10-3 6-13 22-8 15-5 7-4 7-4 10-7 13-4 10-6 13-3 5-4 5-2 6h-5l-5-6-1-2v-63l3-11 1-16 3-8 2-13 2-4 2-8 2-4 2-8 12-25 11-18 6-11 12-20 8-12 5-8 10-12 8-11 9-12 5-6-1-3-5 3-10 9-4 5h-2l-2 5h-2v2l-3 2-3 6-17 17-5 7-6 4-2 2-2 6-9 9-4 8-5 6-2 5-7 8-6 9-4-1-2-4v-12l3-5 2-9 5-10 3-10 4-9 5-13 9-17 7-14 6-8 10-16 9-12 7-8 4-5h2l2-4 7-7 7-8 17-16 11-10 11-7 11-8 7-6 23-12 10-6 10-5 12-5 10-5 10-3 7-2v-3h-7l-23 6-23 8-21 8-29 14-16 8-23 13-12 6-3-1 3-3 22-13 16-9 16-8 22-10 23-9 36-12 35-10 22-5z" fill="#0C0607"/>
<path transform="translate(886,228)" d="m0 0h12l16 5 7 2 13 2 13 6 8 3 8 5 9 3 5 4 10 5 8 6 12 10 5 5 12 13 7 10 9 14 2 6 5 10 2 9 3 7 2 10 2 9v49l-1 10-4 15-5 17-4 9-3 10-2 2h-4l-1 9-6 12-9 13-4 6-3 1-2 5-7 6-11 11-20 9-2-1v-25l3-12v-48l-3-7-1-9-5-4-7-8-4 1-4 8-10 4-10 2h-22l-4 1-17-5-15-3-21-7-15-6-24-10-10-6-11-3-24-9-13-4-20-3-31-5h-72l-26-1-8-5-8-6-3-5 1-7 6-5 11-4 15-1-1-3 28-2 35-3h24l21 2 29 5 43 11 35 11 43 14 22 8 29 12 16 8 16 9 9 9 2 5h2l4 10 2 9 1 6v40l-5 32-2 7 16-9 10-8 8-8 6-7 10-15 12-21 7-15 7-19 5-21 2-18v-30l-3-24-6-19-8-18-9-14-8-10-12-13-7-6-13-9v-2l-4-1-18-10-15-7-20-7-18-5-12-4-13-3zm-254 139-25 1-13 2-6 4-2 5 9 8 9 4 15 2 85 1 25 3 25 5 20 6 27 10 27 12 31 12 20 6 22 5h30l13-4 2-3v-5l-5-4-19-8-26-10-35-12-27-10-43-14-27-7-29-6-24-3z" fill="#050404"/>
<path transform="translate(750,523)" d="m0 0 1 3-16 26-8 16-7 19-7 30-3 30v50l2 26 4 29v12l-4-2-8-16-5-11-6-17-9-29-4-19-2-24v-25l2-19 4-17 8-18 6-10 7-9 9-9 13-8 19-7z" fill="#C02F43"/>
<path transform="translate(622,463)" d="m0 0h6l-2 4-17 10-16 9-14 10-13 12-11 11-9 11-12 16-13 21-9 17-8 20-6 24-4 23-2 14h3l2-6 10-17 2-3h3l1 7-4 13-8 17-11 20-9 23-4 15-4 1-1-6v-37l2-31 4-29 5-22 10-30 8-18 8-14 8-12 8-11 11-13 14-14 17-13 17-10 14-6 12-4z" fill="#C04054"/>
<path transform="translate(642,505)" d="m0 0h3l-2 6-6 8-11 22-6 19-8 29-7 35-3 18-7 39-7 29-3 6-2-2-4-16-3-19-1-11v-55l3-19 6-21 9-20 9-14 12-15h2l2-4 13-10z" fill="#C02F43"/>
<path transform="translate(627,682)" d="m0 0h1l2 24-1 1 1 12 2 15 2 13 2 8 3 14 7 30 10 35 1 8 3 7 2 9 2 5 2 12 2 7 2 10 2 6 2 12 2 8 2 17 2 7 2 16 5 26 1 7 1 17 2 5 1 9 1 21 2 5 2 27 5 42 3 23 2 3 2 25h6l-1 14-2 9-1 1h-8l-6-4-10-7-36-36-8-11-10-11-14-21-6-10-6-9-11-18-9-19-6-16-6-12-10-26-10-30-5-17-7-19-8-26-6-21-6-26-2-10-5-28-4-36-1-56-1-1-3 10-2 5-5 23-3 16-2 16-2 6-1 17-2 8-4 4 5-40 5-29 4-19 6-20 7-20 8-16 1 4-5 31-1 11v47l3 29 5 32 7 31 9 33 9 30 12 36 10 29 12 30 9 20 8 16 8 15 13 21 10 14 12 16 13 15 16 17 9 9 8 7 13 10 7 4-5-33-6-35-5-42-8-74-4-30-6-36-7-36-7-32-11-44-9-32-5-19-6-28-3-22-1-13v-30z" fill="#110908"/>
<path transform="translate(408,517)" d="m0 0h3v7l-14 22-6 10-12 23-15 32-15 35-13 34-17 48-8 22-4 8-4 1 1-22 4-28 6-25 10-30 10-23 10-21 13-23 12-19 14-21 11-15 9-10z" fill="#C04054"/>
<path transform="translate(620,330)" d="m0 0 3 2-2 5-14 14-8 4-8 7-10 7-9 7-8 10-4 6-2 6 5 5 14 7 1 1 11 1 7 3 100 1 5 5 1 7-8 7-4 2v2h7l16-5 16-6h10l5 5-1 6-11 7-8 7v2l31 1 5 6v5l-2 4 4 3 4-6 8-9 5-1 5 10-1 9-4 14 8-1 5-5 4-10 3-7 2-8 5-1 5 2 2 7 1 6-2 21-6 12-9 11-4 7-4 5-8 14-8 15-8 21-2 21-1 8 2 3h2l4-17 5-14 6-21 8-20 5-9 4-1-2 6-7 16-7 22-12 38-6 22h-3l-3-18v-18l2-16 5-17 8-18 11-18 8-12 11-16 5-10 1-15-1-12-1-2h-2l-6 18-6 10-10 7-10 6h-3l3-10 4-14 2-19-5 5-8 11-9 6-3 1-18 1-6-1 2-2 12-5 6-4 6-7v-4h-28l-15 1-9 1v-3l21-14 15-12v-2l-8 1-36 12-19 7-9 3 1-4 10-11 8-7 12-9v-2l-10-1-84-1-16-2-18-5-12-6-5-6v-9l9-13 12-12 18-13 11-8 10-9z" fill="#0B0606"/>
<path transform="translate(385,700)" d="m0 0h2l-1 8-3 19-3 26-2 29v20l2 29 3 26 6 35 9 38 9 31 15 44 12 31 7 17 3 4 7-43 11-53 4-22 18-102 2-10 2-1v17l-2 7-1 1-1 17-1 7-2 2-1 15-2 7-1 1-2 19h-2l-1 17-2 7-1 1-2 18-2 3-2 17-2 3-2 10-2 2-1 21-3 3-1 19-3 9-1 10-1 1h-5l-5-6-9-21-5-14-7-16-7-20-4-12-3-11-3-10-4-13-4-15-5-20-2-6-2-17-2-5-2-18-2-5-2-33-1-9v-34l4-38 3-21-5 3-5 6-7 14-11 20-9 19-4 6h-2l-2 10-6 8-3 9-7 16-5 11-4 13-5 14-2 11-2 4-2 10-2 3-2 16-2 4-2 16-2 4-1 14-1 4h-2l-1 14-2 6-3 11-3 2-3-1 3-6 15-74 8-33 9-29 10-25 17-35 9-17 8-16 10-18 8-12 11-14z" fill="#100908"/>
<path transform="translate(332,458)" d="m0 0h4v2l-20 8-26 12-24 12-23 14-16 11-19 14-16 13-14 12-3 3h-2l-1 3-8 7-9 10-10 13-11 17-12 22-12 28-9 28-6 26-5 33-2 24v66l1 41-4-4-1-2v-120l3-11 1-18 3-8 1-11 3-8 2-11 5-13 3-10 7-19 13-26 5-9 8-12 3-6 12-13 5-5 4-6 9-8 5-5 10-9 8-7 8-6 14-11 7-5v-5l-11 6-16 12-7 5-5 3-11 9-9 6-7 6-5 3-10 9-11 11-7 3h-3v-2l6-4 13-13 11-9 12-10 17-12 19-14 18-12 20-12 22-12 19-9 25-9 23-5z" fill="#0C0607"/>
<path transform="translate(394,112)" d="m0 0h8v2l-24 7-36 12-17 6-36 14-28 13-23 11-23 13-12 8-14 10-14 11-10 9-8 7-16 15-6 6 1 2 12-6 10-6 23-12 25-12 32-13 16-6h2v2l-16 10-28 15-21 13-24 16-19 14-13 11-14 12-16 15-4 5-1-3 6-9 5-5 16-14 10-9 15-11 8-7 22-14 5-1-3-5-4 1-14 8-20 12-3 1h-9l-3-2 2-5 5-6h2l2-4 8-8 8-7 22-18 8-6 13-9 10-7 13-8 22-12 21-9 31-14 22-9 22-6-2-3-19 2-25 5-13 3-18 5-23 7-10 3-32 10-16 6-24 10-17 6h-6l-1-3 9-2 21-9 32-12 31-10 25-7 17-5 30-7 55-11z" fill="#130A09"/>
<path transform="translate(591,236)" d="m0 0 6 1 3 7 5 14 7 8 2 1h16l8-4 5-8 4-7 2-4 8 1 3 4v16l-3 7-4 6-9 9-12 6-8 3-8 1-2 1-12-3-3-2-6-2-8-7-7-9-2-4v-18l6-9z" fill="#C2A61C"/>
<path transform="translate(642,505)" d="m0 0h3l-2 6-6 8-11 22-6 19-8 29-4 19h-2l1-9 2-8 2-9h-3v-2l-3 3-2 1 1 7-2 1-2-5h-2v-3l-3 1-1 5h-3l-1 2h-2l-1 4-5 5-5 18-1 49h-1v-55l3-19 6-21 9-20 9-14 12-15h2l2-4 13-10z" fill="#C04054"/>
<path transform="translate(750,523)" d="m0 0 1 3-16 26-8 16-3 7-1-3h-5l-2 5h-2l-1-1-6 1 1 3-6 1-1 5 1 2-9 2-3-2 2-1v-2h2v-5l3-1v-8l-4 2-2 4-2 7h2v2l-3 2-1 8h-2l-2 22-2 12h-1l-1 16h-1v-25l2-19 4-17 8-18 6-10 7-9 9-9 13-8 19-7z" fill="#C04154"/>
<path transform="translate(340,635)" d="m0 0h2v7l-2 3h-2l1 5-1 2h3l-1 2-2 2 1 2-2 2 2 7-1 7-20 57-7 19-4 8-4 1 1-22 4-28 6-25 10-30 5-12 7-3 3-1z" fill="#C03043"/>
<path transform="translate(886,228)" d="m0 0h12l16 5 7 2 13 2 13 6 8 3 8 5 9 3 5 4 10 5 8 6 12 10 5 5 12 13 7 10 9 14 2 6 5 10 2 9 3 7 2 10 2 9v49l-1 10-4 15-5 17-4 9-3 10-2 2h-4l-1 9-6 12-9 13-4 6-3 1-2 5-7 6-11 11-20 9-2-1v-2l10-5 11-7 10-9 5-6 5-5 10-15 12-21 7-15 7-19 5-21 2-18v-30l-3-24-6-19-8-18-9-14-8-10-12-13-7-6-13-9v-2l-4-1-18-10-15-7-20-7-18-5-12-4-13-3z" fill="#090505"/>
<path transform="translate(627,682)" d="m0 0h1l2 24-1 1 1 12 2 15 2 13 2 8 3 14 7 30 10 35 1 8 3 7 2 9 2 5 2 12 2 7 2 10 2 6 2 12 2 8 2 17 2 7 2 16 5 26 1 7 1 17 2 5 1 9 1 21 2 5 2 27 5 42 3 23 2 3 1 8v12l-3 1-7-42-5-42-8-74-4-30-6-36-7-36-7-32-11-44-9-32-5-19-6-28-3-22-1-13v-30z" fill="#1C0E0B"/>
<path transform="translate(493,226)" d="m0 0h14v2l-30 5v1l14 3 17 5 7 3 5 12 2 8 12 22 11 12 8 7 8 5 3 3v7l-6 3-15 4-15 1 1 2h32l21-2 8-1 23-1 6-2 1 4-19 3-32 3-37 1-18-1-24-4-7-3 1-2 38-2 28-3 11-2-2-4-13-9-10-9-7-10-9-17-8-22-9-3-43-11-20-6v-1z" fill="#130A08"/>
<path transform="translate(778,459)" d="m0 0h2l4 9-1 9-4 14 8-1 5-5 4-10 3-7 2-8 5-1 5 2 2 7 1 6-2 21-6 12-9 11-4 7-4 5-8 14-8 15-8 21-2 21-1 8 2 3h2l4-17 5-14 6-21 8-20 5-9 4-1-2 6-7 16-7 22-12 38-6 22h-3l-3-18v-18l2-16 5-17 8-18 11-18 8-12 11-16 5-10 1-15-1-12-1-2h-2l-6 18-6 10-10 7-10 6h-3l3-10 4-14 1-11z" fill="#120908"/>
<path transform="translate(486,633)" d="m0 0h1v10l-1 5 2 4v4h2l1 4v11l5-2 2-3h2v-2l6-2-1 6-14 27-5 11-6 17-3 11-4 1-1-6v-37l2-18 1-12 3-9v-3l3-1 2-4-1-3 2-8z" fill="#C03143"/>
<path transform="translate(800,531)" d="m0 0 3 1 1 2v12l-3 4v72l3 14 2 11 7 19 6 15 10 21 8 16 6 10 7 11 15 24 7 11 20 25 4 7v4l-5 1-1-7-11-13-13-18-12-19-13-21-12-21-15-30-11-29-6-26-2-13-1-12v-28l2-20 3-17z" fill="#130909"/>
<path transform="translate(254,203)" d="m0 0h2v2l-16 10-28 15-21 13-24 16-19 14-13 11-14 12-16 15-4 5-1-3 6-9 5-5 16-14 10-9 15-11 8-7 22-14 5-1-3-5-4 1-14 8-20 12-9 1 4-4 15-9 27-14 23-11 32-13z" fill="#0C0607"/>
<path transform="translate(591,236)" d="m0 0 6 1 3 7 5 14 7 8 2 1h16l8-4 5-8 4-7 2-4 8 1 3 4v16l-3 7-4 6-9 9-12 6-8 3-8 1-2 1-12-3-3-2-6-2-8-7-7-9-2-4v-18l6-9zm1 3-7 7-5 7-1 3v12l5 9 4 5 10 7 10 4 7 1 9-2 12-5 9-7 7-7 5-13v-12l-1-2-5 1-3 9-6 10-7 5-3 1h-11l-12-3-6-8-5-13-3-9z" fill="#0B0606"/>
<path transform="translate(901,266)" d="m0 0 5 2 4 5-1 6h2l-2 7-7 8-10 9-11 10-4 2-4-1 2-5 14-15 5-6 2-9-7 3-6 4-4 4-6 3h-6l-1-4 4-6 10-9 10-5z" fill="#C03044"/>
<path transform="translate(487,826)" d="m0 0h1v17l-2 7-1 1-1 17-1 7-2 2-1 15-2 7-1 1-2 19h-2l-1 17-2 7-1 1-2 18-2 3-2 17-2 3-2 10-4 5 1-10 7-35 9-50 13-74z" fill="#0F0708"/>
<path transform="translate(1032,486)" d="m0 0 1 2-3 9-4 8-9 13-4 6-3 1-2 5-7 6-11 11-20 9-2-1v-2l10-5 11-7 10-9 5-6 5-5 10-15 10-17z" fill="#0B0606"/>
<path transform="translate(778,459)" d="m0 0h2l4 9-1 9-4 14 8-1 5-5 4-10 3-7 2-8 5-1 1 2-3 3-5 16-6 10-10 7-10 6h-3l3-10 4-14 1-11z" fill="#160B0A"/>
<path transform="translate(893,268)" d="m0 0h2l1 3-3 1-3 6 5-3h3l-1 3-5 2-9 6-4 4-6 3h-6l-1-4 4-6 10-9 10-5z" fill="#C02F44"/>
<path transform="translate(509,639)" d="m0 0h3l1 7-4 13-2 5-4-1-1 3v-2h-2v2h-2l-2 4-5 2-1-1v-10l2-1v5h3l2-6 10-17z" fill="#C04352"/>
<path transform="translate(633,648)" d="m0 0 2 2 2 29h-2l-2-2-2 3h-2v5l-2-3v-8l4-21z" fill="#140B08"/>
<path transform="translate(901,266)" d="m0 0 5 2 3 4-3 3-1 2h-2l-2 4-2 1-1-7-6 3h-2l2-4 3-4 1-3z" fill="#C03D52"/>
<path transform="translate(490,795)" d="m0 0h3l-1 20-2 8-4 4z" fill="#23130D"/>
<path transform="translate(455 1e3)" d="m0 0h1v18l-5 4-1-2 4-19z" fill="#16080B"/>
<path transform="translate(627,682)" d="m0 0h1l2 24-3 1v7h-1v-30z" fill="#462817"/>
<path transform="translate(590,1084)" d="m0 0 7 5 4 11-1 2-7-10-4-7z" fill="#CC8D54"/>
<path transform="translate(156,161)" d="m0 0m-1 1m-1 1m-1 1m-1 1m-2 1 2 1-5 5-8 6h-2l2-4 8-6z" fill="#1C0C0C"/>
<path transform="translate(486,633)" d="m0 0h1v10l-1 2-4-1 2-10z" fill="#C12E43"/>
<path transform="translate(610,591)" d="m0 0 1 4-3 13h-2l1-9 2-7z" fill="#C04651"/>
<path transform="translate(590,1084)" d="m0 0 7 5 2 4-1 3-4-6-5-5z" fill="#18090C"/>
<path transform="translate(601,1102)" d="m0 0" fill="#C04055"/>
</svg>
